<mxfile host="65bd71144e">
    <diagram id="biUGmro8-sP_YrCl5ZqS" name="Page-1">
        <mxGraphModel dx="905" dy="255" grid="1" gridSize="10" guides="1" tooltips="1" connect="1" arrows="1" fold="1" page="1" pageScale="1" pageWidth="1100" pageHeight="850" math="0" shadow="0">
            <root>
                <mxCell id="0"/>
                <mxCell id="1" parent="0"/>
                <mxCell id="29" value="" style="rounded=0;whiteSpace=wrap;html=1;" vertex="1" parent="1">
                    <mxGeometry x="400" y="130" width="450" height="240" as="geometry"/>
                </mxCell>
                <mxCell id="30" value="&lt;b&gt;NAVBAAR&lt;/b&gt;" style="rounded=0;whiteSpace=wrap;html=1;strokeColor=#000000;" vertex="1" parent="1">
                    <mxGeometry x="400" y="130" width="450" height="30" as="geometry"/>
                </mxCell>
                <mxCell id="31" value="options for future like old chats or sessons or account details options&amp;nbsp;" style="rounded=0;whiteSpace=wrap;html=1;" vertex="1" parent="1">
                    <mxGeometry x="400" y="160" width="130" height="210" as="geometry"/>
                </mxCell>
                <mxCell id="32" value="typingggggggg board where user type tehir prompts" style="rounded=0;whiteSpace=wrap;html=1;" vertex="1" parent="1">
                    <mxGeometry x="530" y="310" width="320" height="60" as="geometry"/>
                </mxCell>
                <mxCell id="33" value="usweeeee" style="rounded=1;whiteSpace=wrap;html=1;shadow=1;" vertex="1" parent="1">
                    <mxGeometry x="540" y="260" width="110" height="30" as="geometry"/>
                </mxCell>
                <mxCell id="34" value="aiiiiiii" style="rounded=1;whiteSpace=wrap;html=1;shadow=1;" vertex="1" parent="1">
                    <mxGeometry x="730" y="235" width="110" height="30" as="geometry"/>
                </mxCell>
                <mxCell id="35" value="userrrrrr" style="rounded=1;whiteSpace=wrap;html=1;shadow=1;" vertex="1" parent="1">
                    <mxGeometry x="540" y="205" width="110" height="30" as="geometry"/>
                </mxCell>
                <mxCell id="36" value="aiiiiiiiiiiiiiiii" style="rounded=1;whiteSpace=wrap;html=1;shadow=1;" vertex="1" parent="1">
                    <mxGeometry x="730" y="175" width="110" height="30" as="geometry"/>
                </mxCell>
            </root>
        </mxGraphModel>
    </diagram>
</mxfile>